<svg xmlns="http://www.w3.org/2000/svg" xmlns:xlink="http://www.w3.org/1999/xlink" width="500" zoomAndPan="magnify" viewBox="0 0 375 374.999991" height="500" preserveAspectRatio="xMidYMid meet" version="1.0"><defs><g/><clipPath id="623cb89ae9"><path d="M 324.554688 144.628906 L 356.371094 144.628906 L 356.371094 248.128906 L 324.554688 248.128906 Z M 324.554688 144.628906 " clip-rule="nonzero"/></clipPath><clipPath id="9434c3eb9b"><path d="M 10.445312 144.628906 L 42 144.628906 L 42 248.128906 L 10.445312 248.128906 Z M 10.445312 144.628906 " clip-rule="nonzero"/></clipPath></defs><g clip-path="url(#623cb89ae9)"><path fill="#000000" d="M 327.707031 156.128906 L 324.839844 156.128906 L 324.839844 144.628906 L 327.707031 144.628906 C 337.199219 144.628906 344.890625 152.351562 344.890625 161.878906 L 344.890625 182.003906 C 344.890625 183.816406 345.742188 185.519531 347.183594 186.605469 L 354.058594 191.78125 C 355.433594 192.816406 356.273438 194.417969 356.34375 196.140625 C 356.417969 197.867188 355.710938 199.53125 354.425781 200.679688 L 346.816406 207.464844 C 345.59375 208.558594 344.890625 210.121094 344.890625 211.765625 L 344.890625 230.878906 C 344.890625 240.40625 337.199219 248.128906 327.707031 248.128906 L 324.839844 248.128906 L 324.839844 236.628906 L 327.707031 236.628906 C 330.871094 236.628906 333.433594 234.054688 333.433594 230.878906 L 333.433594 211.765625 C 333.433594 206.835938 335.535156 202.144531 339.203125 198.871094 L 341.574219 196.757812 L 340.308594 195.804688 C 335.980469 192.546875 333.433594 187.433594 333.433594 182.003906 L 333.433594 161.878906 C 333.433594 158.703125 330.871094 156.128906 327.707031 156.128906 Z M 327.707031 156.128906 " fill-opacity="1" fill-rule="evenodd"/></g><g clip-path="url(#9434c3eb9b)"><path fill="#000000" d="M 39.113281 156.128906 L 41.976562 156.128906 L 41.976562 144.628906 L 39.113281 144.628906 C 29.621094 144.628906 21.925781 152.351562 21.925781 161.878906 L 21.925781 182.003906 C 21.925781 183.816406 21.078125 185.519531 19.636719 186.605469 L 12.761719 191.78125 C 11.382812 192.816406 10.546875 194.417969 10.472656 196.140625 C 10.402344 197.867188 11.105469 199.53125 12.390625 200.679688 L 20.003906 207.464844 C 21.226562 208.558594 21.925781 210.121094 21.925781 211.765625 L 21.925781 230.878906 C 21.925781 240.40625 29.621094 248.128906 39.113281 248.128906 L 41.976562 248.128906 L 41.976562 236.628906 L 39.113281 236.628906 C 35.949219 236.628906 33.382812 234.054688 33.382812 230.878906 L 33.382812 211.765625 C 33.382812 206.835938 31.285156 202.144531 27.613281 198.871094 L 25.246094 196.757812 L 26.507812 195.804688 C 30.835938 192.546875 33.382812 187.433594 33.382812 182.003906 L 33.382812 161.878906 C 33.382812 158.703125 35.949219 156.128906 39.113281 156.128906 Z M 39.113281 156.128906 " fill-opacity="1" fill-rule="evenodd"/></g><g fill="#db4a2b" fill-opacity="1"><g transform="translate(38.442332, 213.143146)"><g><path d="M 20.859375 -33.8125 C 26.285156 -33.8125 30.675781 -32.648438 34.03125 -30.328125 C 37.394531 -28.015625 39.078125 -24.484375 39.078125 -19.734375 L 26.984375 -19.734375 C 26.984375 -23.484375 24.941406 -25.359375 20.859375 -25.359375 C 16.765625 -25.359375 14.71875 -23 14.71875 -18.28125 L 14.71875 -14.71875 C 14.71875 -10.039062 16.847656 -7.703125 21.109375 -7.703125 C 25.367188 -7.703125 27.5 -9.625 27.5 -13.46875 L 39.078125 -13.46875 C 39.078125 -8.664062 37.394531 -5.09375 34.03125 -2.75 C 30.675781 -0.414062 26.285156 0.75 20.859375 0.75 C 15.054688 0.75 10.503906 -0.707031 7.203125 -3.625 C 3.898438 -6.550781 2.25 -10.851562 2.25 -16.53125 C 2.25 -22.207031 3.898438 -26.503906 7.203125 -29.421875 C 10.503906 -32.347656 15.054688 -33.8125 20.859375 -33.8125 Z M 20.859375 -33.8125 "/></g></g></g><g fill="#db4a2b" fill-opacity="1"><g transform="translate(76.643533, 213.143146)"><g><path d="M 20.859375 -33.8125 C 26.660156 -33.8125 31.21875 -32.335938 34.53125 -29.390625 C 37.851562 -26.453125 39.515625 -22.164062 39.515625 -16.53125 C 39.515625 -10.894531 37.851562 -6.601562 34.53125 -3.65625 C 31.21875 -0.71875 26.660156 0.75 20.859375 0.75 C 15.054688 0.75 10.503906 -0.707031 7.203125 -3.625 C 3.898438 -6.550781 2.25 -10.851562 2.25 -16.53125 C 2.25 -22.207031 3.898438 -26.503906 7.203125 -29.421875 C 10.503906 -32.347656 15.054688 -33.8125 20.859375 -33.8125 Z M 20.859375 -25.359375 C 16.765625 -25.359375 14.71875 -23 14.71875 -18.28125 L 14.71875 -14.71875 C 14.71875 -10.039062 16.765625 -7.703125 20.859375 -7.703125 C 24.984375 -7.703125 27.046875 -10.039062 27.046875 -14.71875 L 27.046875 -18.28125 C 27.046875 -23 24.984375 -25.359375 20.859375 -25.359375 Z M 20.859375 -25.359375 "/></g></g></g><g fill="#db4a2b" fill-opacity="1"><g transform="translate(114.844733, 213.143146)"><g><path d="M 27.8125 0 L 26.734375 -4.703125 C 24.316406 -1.066406 20.8125 0.75 16.21875 0.75 C 11.75 0.75 8.300781 -0.707031 5.875 -3.625 C 3.457031 -6.550781 2.25 -10.875 2.25 -16.59375 C 2.25 -22.269531 3.457031 -26.554688 5.875 -29.453125 C 8.300781 -32.359375 11.75 -33.8125 16.21875 -33.8125 C 20.019531 -33.8125 23.109375 -32.539062 25.484375 -30 L 25.484375 -45.40625 L 37.953125 -45.40625 L 37.953125 0 Z M 20.109375 -24.609375 C 16.515625 -24.609375 14.71875 -22.457031 14.71875 -18.15625 L 14.71875 -14.84375 C 14.71875 -10.582031 16.515625 -8.453125 20.109375 -8.453125 C 21.941406 -8.453125 23.316406 -9.097656 24.234375 -10.390625 C 25.148438 -11.691406 25.609375 -13.382812 25.609375 -15.46875 L 25.609375 -17.53125 C 25.609375 -19.625 25.148438 -21.328125 24.234375 -22.640625 C 23.316406 -23.953125 21.941406 -24.609375 20.109375 -24.609375 Z M 20.109375 -24.609375 "/></g></g></g><g fill="#db4a2b" fill-opacity="1"><g transform="translate(153.045933, 213.143146)"><g><path d="M 20.859375 -33.8125 C 26.910156 -33.8125 31.53125 -32.390625 34.71875 -29.546875 C 37.914062 -26.710938 39.515625 -22.375 39.515625 -16.53125 L 39.515625 -14.40625 L 14.71875 -14.40625 C 14.71875 -12.019531 15.25 -10.222656 16.3125 -9.015625 C 17.375 -7.804688 19.054688 -7.203125 21.359375 -7.203125 C 23.441406 -7.203125 24.972656 -7.640625 25.953125 -8.515625 C 26.941406 -9.390625 27.4375 -10.5625 27.4375 -12.03125 L 39.515625 -12.03125 C 39.515625 -8.019531 37.988281 -4.882812 34.9375 -2.625 C 31.894531 -0.375 27.453125 0.75 21.609375 0.75 C 15.472656 0.75 10.710938 -0.675781 7.328125 -3.53125 C 3.941406 -6.394531 2.25 -10.726562 2.25 -16.53125 C 2.25 -22.207031 3.898438 -26.503906 7.203125 -29.421875 C 10.503906 -32.347656 15.054688 -33.8125 20.859375 -33.8125 Z M 21.359375 -25.859375 C 17.429688 -25.859375 15.238281 -24.003906 14.78125 -20.296875 L 26.921875 -20.296875 C 26.921875 -22.003906 26.429688 -23.359375 25.453125 -24.359375 C 24.472656 -25.359375 23.109375 -25.859375 21.359375 -25.859375 Z M 21.359375 -25.859375 "/></g></g></g><g fill="#db4a2b" fill-opacity="1"><g transform="translate(191.247133, 213.143146)"><g><path d="M 20.109375 -33.8125 C 25.160156 -33.8125 29.269531 -32.96875 32.4375 -31.28125 C 35.613281 -29.59375 37.203125 -26.847656 37.203125 -23.046875 L 37.203125 -10.140625 C 37.203125 -9.429688 37.367188 -8.847656 37.703125 -8.390625 C 38.035156 -7.929688 38.535156 -7.703125 39.203125 -7.703125 L 41.453125 -7.703125 L 41.453125 -0.5 C 41.328125 -0.414062 41.003906 -0.28125 40.484375 -0.09375 C 39.960938 0.09375 39.222656 0.28125 38.265625 0.46875 C 37.304688 0.65625 36.195312 0.75 34.9375 0.75 C 32.519531 0.75 30.523438 0.382812 28.953125 -0.34375 C 27.390625 -1.070312 26.316406 -2.082031 25.734375 -3.375 C 24.148438 -2.125 22.375 -1.125 20.40625 -0.375 C 18.445312 0.375 16.15625 0.75 13.53125 0.75 C 5.757812 0.75 1.875 -2.335938 1.875 -8.515625 C 1.875 -11.734375 2.738281 -14.1875 4.46875 -15.875 C 6.207031 -17.5625 8.703125 -18.71875 11.953125 -19.34375 C 15.210938 -19.976562 19.472656 -20.296875 24.734375 -20.296875 L 24.734375 -21.921875 C 24.734375 -23.210938 24.285156 -24.191406 23.390625 -24.859375 C 22.492188 -25.523438 21.335938 -25.859375 19.921875 -25.859375 C 18.617188 -25.859375 17.5 -25.628906 16.5625 -25.171875 C 15.625 -24.710938 15.15625 -23.984375 15.15625 -22.984375 L 15.15625 -22.734375 L 2.875 -22.734375 C 2.832031 -22.941406 2.8125 -23.234375 2.8125 -23.609375 C 2.8125 -26.742188 4.304688 -29.226562 7.296875 -31.0625 C 10.285156 -32.894531 14.554688 -33.8125 20.109375 -33.8125 Z M 24.734375 -14.40625 C 21.179688 -14.40625 18.5625 -14.019531 16.875 -13.25 C 15.1875 -12.476562 14.34375 -11.441406 14.34375 -10.140625 C 14.34375 -8.054688 15.757812 -7.015625 18.59375 -7.015625 C 20.226562 -7.015625 21.660156 -7.453125 22.890625 -8.328125 C 24.117188 -9.203125 24.734375 -10.285156 24.734375 -11.578125 Z M 24.734375 -14.40625 "/></g></g></g><g fill="#db4a2b" fill-opacity="1"><g transform="translate(229.448334, 213.143146)"><g><path d="M 41.453125 0 L 26.921875 0 L 20.671875 -10.390625 L 20.421875 -10.390625 L 14.09375 0 L 0.25 0 L 12.96875 -17.53125 L 1.5 -33.0625 L 16.15625 -33.0625 L 21.421875 -24.296875 L 21.671875 -24.296875 L 26.921875 -33.0625 L 40.703125 -33.0625 L 29.0625 -17.21875 Z M 41.453125 0 "/></g></g></g><g fill="#db4a2b" fill-opacity="1"><g transform="translate(267.649534, 213.143146)"><g><path d="M 20.859375 -33.8125 C 26.910156 -33.8125 31.53125 -32.390625 34.71875 -29.546875 C 37.914062 -26.710938 39.515625 -22.375 39.515625 -16.53125 L 39.515625 -14.40625 L 14.71875 -14.40625 C 14.71875 -12.019531 15.25 -10.222656 16.3125 -9.015625 C 17.375 -7.804688 19.054688 -7.203125 21.359375 -7.203125 C 23.441406 -7.203125 24.972656 -7.640625 25.953125 -8.515625 C 26.941406 -9.390625 27.4375 -10.5625 27.4375 -12.03125 L 39.515625 -12.03125 C 39.515625 -8.019531 37.988281 -4.882812 34.9375 -2.625 C 31.894531 -0.375 27.453125 0.75 21.609375 0.75 C 15.472656 0.75 10.710938 -0.675781 7.328125 -3.53125 C 3.941406 -6.394531 2.25 -10.726562 2.25 -16.53125 C 2.25 -22.207031 3.898438 -26.503906 7.203125 -29.421875 C 10.503906 -32.347656 15.054688 -33.8125 20.859375 -33.8125 Z M 21.359375 -25.859375 C 17.429688 -25.859375 15.238281 -24.003906 14.78125 -20.296875 L 26.921875 -20.296875 C 26.921875 -22.003906 26.429688 -23.359375 25.453125 -24.359375 C 24.472656 -25.359375 23.109375 -25.859375 21.359375 -25.859375 Z M 21.359375 -25.859375 "/></g></g></g><g fill="#db4a2b" fill-opacity="1"><g transform="translate(305.850734, 213.143146)"><g><path d="M 3.8125 0 L 3.8125 -12.46875 L 17.09375 -12.46875 L 17.09375 0 Z M 3.8125 0 "/></g></g></g><g fill="#db4a2b" fill-opacity="1"><g transform="translate(242.01381, 225.96042)"><g><path d="M 5.65625 -7.90625 C 5.265625 -7.953125 4.953125 -7.953125 4.546875 -7.953125 L 1.65625 -7.953125 L 0.234375 0 L 3.234375 0 C 3.671875 0 3.84375 0 4.265625 -0.03125 C 7.0625 -0.296875 8.421875 -2.265625 8.421875 -4.578125 C 8.421875 -6.703125 7.234375 -7.71875 5.65625 -7.90625 Z M 4.0625 -1.640625 C 3.796875 -1.609375 3.609375 -1.609375 3.3125 -1.609375 L 2.609375 -1.609375 L 3.4375 -6.34375 L 4.125 -6.34375 C 4.421875 -6.34375 4.609375 -6.34375 4.875 -6.3125 C 5.734375 -6.234375 6.234375 -5.71875 6.234375 -4.515625 C 6.234375 -3.046875 5.546875 -1.78125 4.0625 -1.640625 Z M 4.0625 -1.640625 "/></g></g></g><g fill="#db4a2b" fill-opacity="1"><g transform="translate(250.212916, 225.96042)"><g><path d="M 3.4375 -6.34375 L 7.34375 -6.34375 L 7.640625 -7.953125 L 1.65625 -7.953125 L 0.234375 0 L 6.34375 0 L 6.625 -1.609375 L 2.609375 -1.609375 L 2.890625 -3.1875 L 6.5625 -3.1875 L 6.84375 -4.796875 L 3.171875 -4.796875 Z M 3.4375 -6.34375 "/></g></g></g><g fill="#db4a2b" fill-opacity="1"><g transform="translate(257.097336, 225.96042)"><g><path d="M 5.3125 0 L 9.515625 -7.953125 L 7.3125 -7.953125 L 4.28125 -1.609375 L 3.5 -7.953125 L 1.234375 -7.953125 L 2.625 0 Z M 5.3125 0 "/></g></g></g><g fill="#db4a2b" fill-opacity="1"><g transform="translate(265.29644, 225.96042)"><g><path d="M 3.4375 -6.34375 L 7.34375 -6.34375 L 7.640625 -7.953125 L 1.65625 -7.953125 L 0.234375 0 L 6.34375 0 L 6.625 -1.609375 L 2.609375 -1.609375 L 2.890625 -3.1875 L 6.5625 -3.1875 L 6.84375 -4.796875 L 3.171875 -4.796875 Z M 3.4375 -6.34375 "/></g></g></g><g fill="#db4a2b" fill-opacity="1"><g transform="translate(272.180861, 225.96042)"><g><path d="M 6.65625 -1.75 L 2.625 -1.75 L 3.71875 -7.953125 L 1.65625 -7.953125 L 0.234375 0 L 6.34375 0 Z M 6.65625 -1.75 "/></g></g></g><g fill="#db4a2b" fill-opacity="1"><g transform="translate(278.926903, 225.96042)"><g><path d="M 5.390625 -8.125 C 2.796875 -8.125 0.75 -6.28125 0.75 -3.28125 C 0.75 -1.3125 2.125 0.15625 4.5625 0.15625 C 7.140625 0.15625 9.1875 -1.671875 9.1875 -4.671875 C 9.1875 -6.640625 7.8125 -8.125 5.390625 -8.125 Z M 4.625 -1.359375 C 3.515625 -1.359375 2.9375 -2.171875 2.9375 -3.34375 C 2.9375 -4.828125 3.71875 -6.59375 5.3125 -6.59375 C 6.421875 -6.59375 7 -5.78125 7 -4.609375 C 7 -3.125 6.234375 -1.359375 4.625 -1.359375 Z M 4.625 -1.359375 "/></g></g></g><g fill="#db4a2b" fill-opacity="1"><g transform="translate(287.887136, 225.96042)"><g><path d="M 5.78125 -7.90625 C 5.34375 -7.9375 5.03125 -7.953125 4.53125 -7.953125 L 1.65625 -7.953125 L 0.234375 0 L 2.3125 0 L 2.8125 -2.796875 L 3.734375 -2.796875 C 4.234375 -2.796875 4.5625 -2.796875 5 -2.84375 C 6.328125 -3 7.6875 -3.984375 7.6875 -5.828125 C 7.6875 -7.09375 6.765625 -7.78125 5.78125 -7.90625 Z M 4.46875 -4.421875 C 4.296875 -4.40625 4.125 -4.40625 3.90625 -4.40625 L 3.109375 -4.40625 L 3.453125 -6.34375 L 4.25 -6.34375 C 4.46875 -6.34375 4.65625 -6.34375 4.8125 -6.328125 C 5.25 -6.296875 5.5 -6.046875 5.5 -5.578125 C 5.5 -4.875 5.109375 -4.46875 4.46875 -4.421875 Z M 4.46875 -4.421875 "/></g></g></g><g fill="#db4a2b" fill-opacity="1"><g transform="translate(295.013735, 225.96042)"><g><path d="M 3.4375 -6.34375 L 7.34375 -6.34375 L 7.640625 -7.953125 L 1.65625 -7.953125 L 0.234375 0 L 6.34375 0 L 6.625 -1.609375 L 2.609375 -1.609375 L 2.890625 -3.1875 L 6.5625 -3.1875 L 6.84375 -4.796875 L 3.171875 -4.796875 Z M 3.4375 -6.34375 "/></g></g></g><g fill="#db4a2b" fill-opacity="1"><g transform="translate(301.898153, 225.96042)"><g><path d="M 7.875 -6.15625 C 7.875 -7.28125 7.046875 -7.78125 6.046875 -7.90625 C 5.625 -7.9375 5.296875 -7.953125 4.8125 -7.953125 L 1.65625 -7.953125 L 0.234375 0 L 2.3125 0 L 2.84375 -3.015625 L 3.328125 -3.015625 C 3.546875 -3.015625 3.734375 -3.015625 3.96875 -3.015625 C 4.453125 -2.96875 4.703125 -2.53125 4.703125 -1.765625 C 4.703125 -0.859375 4.734375 -0.421875 4.78125 0 L 7.046875 0 C 6.875 -0.375 6.78125 -0.875 6.78125 -1.53125 C 6.78125 -2.796875 6.546875 -3.46875 5.828125 -3.78125 C 7.171875 -4.125 7.875 -4.953125 7.875 -6.15625 Z M 3.109375 -4.515625 L 3.4375 -6.34375 L 4.25 -6.34375 C 4.46875 -6.34375 4.640625 -6.34375 4.796875 -6.328125 C 5.265625 -6.296875 5.609375 -6.140625 5.609375 -5.609375 C 5.609375 -4.8125 5.046875 -4.578125 4.421875 -4.53125 C 4.28125 -4.515625 4.09375 -4.515625 3.875 -4.515625 Z M 3.109375 -4.515625 "/></g></g></g></svg>